<svg width="1440" height="164" viewBox="0 0 1440 164" fill="none" xmlns="http://www.w3.org/2000/svg">
<path d="M0.87442 0C-45.9817 0 -72.4084 53.8203 -43.7569 90.8957C-27.9283 111.378 -0.189651 118.458 23.5186 108.065L98.5128 75.1932C125.966 63.1596 158.029 69.8432 178.388 91.8433L197.691 112.703C223.523 140.617 269.585 132.378 284.139 97.24C298.092 63.5544 341.423 54.2216 368.006 79.1767L386.937 96.9491C405.292 114.181 432.562 117.86 454.828 106.109C477.315 94.2406 504.878 98.1218 523.213 115.739L524.777 117.241C553.923 145.244 601.776 138.069 621.74 102.925C642.753 65.9313 693.954 60.0864 722.474 91.6576L742.708 114.057C771.213 145.612 820.506 146.353 849.947 115.669L876.214 88.2928C893.065 70.7309 921.539 72.0756 936.659 91.1473L946.557 103.632C955.961 115.492 973.532 116.683 984.45 106.2C995.525 95.565 1013.4 96.9677 1022.68 109.2L1045.86 139.76C1069.19 170.512 1115.11 171.44 1139.67 141.657L1155.99 121.858C1183.86 88.0578 1236.19 89.7455 1261.92 125.198C1288.65 162.022 1343.62 162.033 1370.26 125.139L1392.49 94.3452C1406.83 74.4767 1436.07 73.5067 1451.7 92.3812C1474.08 119.408 1518 103.584 1518 68.4958V45.6743C1518 20.4491 1497.55 0 1472.33 0H0.87442Z" fill="#363A24"/>
</svg>
