<svg width="1440" height="289" viewBox="0 0 1440 289" fill="none" xmlns="http://www.w3.org/2000/svg">
<path d="M-136 192.594C-136 250.6 -80.6968 292.628 -24.8094 277.094L353.257 172.007C414.676 154.935 479.367 153.344 541.551 167.376L1030.5 277.71C1117.97 297.446 1209.35 290.428 1292.77 257.566L1527.22 165.216C1556.65 153.621 1576 125.205 1576 93.5697C1576 41.0871 1524.65 3.98157 1474.82 20.4594L1229.54 101.571C1187.04 115.625 1141.66 118.628 1097.68 110.296L570.472 10.4241C488.938 -5.02145 405.077 -3.25899 324.264 15.5985L-68.2267 107.185C-107.92 116.448 -136 151.835 -136 192.594Z" fill="url(#paint0_linear_28_47)"/>
<defs>
<linearGradient id="paint0_linear_28_47" x1="-136" y1="147.5" x2="1576" y2="147.5" gradientUnits="userSpaceOnUse">
<stop stop-color="#363A24"/>
<stop offset="0.5" stop-color="#4F3011"/>
<stop offset="0.75" stop-color="#CBA561"/>
<stop offset="1" stop-color="#E4D39E"/>
</linearGradient>
</defs>
</svg>
